<?xml version="1.0" standalone="no"?>
<!DOCTYPE svg PUBLIC "-//W3C//DTD SVG 20010904//EN"
 "http://www.w3.org/TR/2001/REC-SVG-20010904/DTD/svg10.dtd">
<svg version="1.0" xmlns="http://www.w3.org/2000/svg"
 width="512.000000pt" height="512.000000pt" viewBox="0 0 512.000000 512.000000"
 preserveAspectRatio="xMidYMid meet">
<metadata>
Created by potrace 1.14, written by Peter Selinger 2001-2017
</metadata>
<g transform="translate(0.000000,512.000000) scale(0.100000,-0.100000)"
fill="#000000" stroke="none">
<path d="M2258 4835 c-2 -1 -37 -5 -78 -9 -79 -7 -103 -10 -187 -27 -29 -6
-63 -12 -75 -13 -89 -11 -356 -107 -508 -182 -672 -334 -1118 -956 -1225
-1712 -16 -110 -21 -380 -10 -477 36 -311 91 -518 204 -758 202 -430 541 -789
958 -1015 207 -112 502 -214 685 -237 22 -3 44 -7 48 -10 14 -9 202 -20 335
-19 188 0 291 11 484 49 80 15 357 106 407 133 11 6 60 31 110 56 128 63 327
189 380 240 6 6 29 25 50 41 21 17 65 55 98 85 32 30 64 54 70 52 6 -2 8 0 4
4 -9 9 10 34 26 34 6 0 4 -5 -4 -10 -9 -6 -10 -10 -3 -10 7 0 16 7 21 16 8 15
11 14 25 -6 14 -20 16 -20 21 -3 5 14 16 18 60 18 53 0 55 -1 51 -25 -5 -23
-4 -23 6 3 11 29 32 28 23 -1 -3 -9 1 -7 8 6 11 18 16 20 27 10 8 -7 11 -8 8
-2 -4 7 9 10 38 10 25 -1 45 4 46 9 0 6 4 1 8 -9 8 -20 41 -32 41 -14 0 6 -7
8 -15 4 -8 -3 -15 -1 -15 4 0 12 40 34 47 26 4 -3 13 0 21 7 13 10 15 9 9 -5
-4 -12 0 -21 14 -29 11 -6 23 -8 26 -6 2 3 -5 8 -16 12 -25 7 -18 31 12 42 12
4 25 6 30 5 4 -1 7 3 7 8 0 5 3 9 8 8 4 -1 22 6 40 16 34 17 50 16 38 -3 -4
-6 -12 -8 -19 -5 -17 6 -52 -32 -38 -40 5 -4 12 -2 16 4 4 6 11 8 16 4 5 -3 7
-9 5 -13 -3 -4 2 -8 10 -8 10 0 8 7 -8 25 -22 23 -22 24 -3 20 11 -1 23 -7 27
-13 4 -5 6 5 4 22 -3 25 2 36 20 48 29 19 34 19 34 1 0 -8 4 -18 10 -21 7 -4
7 2 0 19 -10 28 4 46 23 27 6 -6 15 -11 20 -11 5 0 -1 9 -14 20 -19 15 -20 19
-8 20 9 0 20 8 24 18 6 16 7 16 20 -1 13 -18 13 -18 19 1 4 11 5 26 4 33 -2 7
7 18 20 24 31 17 40 27 17 20 -19 -6 -19 -6 -2 8 9 8 17 22 17 31 0 18 16 22
22 4 5 -14 38 -20 38 -6 0 6 -7 7 -16 4 -12 -5 -15 -2 -10 9 4 10 2 14 -5 9
-7 -4 -10 -1 -7 7 3 8 10 13 16 12 5 -1 16 5 24 15 12 15 11 16 -4 3 -16 -12
-18 -11 -18 3 0 9 5 16 11 16 6 0 8 7 5 16 -4 12 -2 15 9 10 12 -4 14 0 9 18
-4 16 0 25 11 30 14 5 15 9 5 21 -7 8 -10 16 -6 16 3 1 10 2 15 3 5 0 13 5 18
10 5 5 3 6 -4 2 -9 -5 -13 1 -13 18 0 13 6 27 13 30 9 5 9 7 0 12 -8 4 -9 13
-3 29 5 12 6 26 2 31 -4 4 1 4 11 1 10 -4 16 -3 12 2 -3 5 -2 11 2 14 5 2 2 2
-4 1 -9 -2 -13 11 -13 43 l0 46 22 -19 c17 -14 20 -15 9 -2 -7 9 -9 23 -5 29
4 8 3 9 -4 5 -7 -4 -17 -4 -23 0 -8 4 -7 9 2 15 11 7 11 9 1 9 -7 0 -10 5 -7
10 4 6 11 7 17 4 7 -4 8 -2 4 5 -4 6 -12 9 -17 6 -5 -4 -9 0 -10 7 0 7 -3 29
-6 48 -2 19 -5 41 -6 48 0 6 -4 12 -9 12 -4 0 -8 7 -8 16 0 21 -64 149 -96
191 -26 34 -31 48 -12 37 7 -4 8 -3 4 5 -4 6 -12 9 -17 5 -13 -8 -50 36 -42
49 3 5 2 7 -4 4 -5 -3 -22 6 -39 19 -16 14 -41 33 -55 41 -23 14 -26 21 -23
57 5 60 4 323 -1 381 -5 55 -15 139 -21 170 -6 32 -25 128 -30 152 -2 12 -9
34 -14 48 -5 14 -8 25 -5 25 6 0 -69 215 -104 300 -58 137 -220 410 -288 485
-10 11 -30 36 -44 55 -58 76 -236 251 -335 328 -63 49 -171 124 -204 143 -19
11 -51 29 -70 41 -235 141 -513 232 -870 284 -42 6 -376 14 -382 9z m2512
-3551 c0 -8 -4 -12 -10 -9 -5 3 -10 10 -10 16 0 5 5 9 10 9 6 0 10 -7 10 -16z
m-680 -214 c0 -5 -2 -10 -4 -10 -3 0 -8 5 -11 10 -3 6 -1 10 4 10 6 0 11 -4
11 -10z"/>
<path d="M4895 2109 c-4 -6 -5 -12 -2 -15 2 -3 7 2 10 11 7 17 1 20 -8 4z"/>
<path d="M4949 1937 c6 -8 7 -18 3 -22 -4 -5 -1 -5 6 -1 10 6 10 11 1 22 -6 8
-14 14 -16 14 -3 0 0 -6 6 -13z"/>
<path d="M4960 1766 c0 -2 7 -9 15 -16 13 -11 14 -10 9 4 -5 14 -24 23 -24 12z"/>
<path d="M4990 1696 c0 -2 8 -10 18 -17 15 -13 16 -12 3 4 -13 16 -21 21 -21
13z"/>
<path d="M4950 1670 c0 -6 7 -10 15 -10 8 0 15 2 15 4 0 2 -7 6 -15 10 -8 3
-15 1 -15 -4z"/>
<path d="M4996 1647 c3 -10 9 -15 12 -12 3 3 0 11 -7 18 -10 9 -11 8 -5 -6z"/>
<path d="M4950 1540 c14 -9 7 -14 -13 -11 -5 1 -6 -3 -2 -9 5 -8 11 -8 21 1
15 12 10 29 -9 29 -7 0 -6 -4 3 -10z"/>
<path d="M4970 1500 c0 -5 5 -10 11 -10 5 0 7 5 4 10 -3 6 -8 10 -11 10 -2 0
-4 -4 -4 -10z"/>
<path d="M4908 1423 c7 -3 16 -2 19 1 4 3 -2 6 -13 5 -11 0 -14 -3 -6 -6z"/>
<path d="M4910 1400 c0 -5 5 -10 11 -10 5 0 7 5 4 10 -3 6 -8 10 -11 10 -2 0
-4 -4 -4 -10z"/>
<path d="M4840 1361 c0 -5 7 -12 16 -15 14 -5 15 -4 4 9 -14 17 -20 19 -20 6z"/>
<path d="M4830 1319 c0 -5 6 -8 13 -6 6 1 11 -5 9 -13 -2 -8 0 -11 4 -7 15 15
11 33 -7 34 -11 1 -19 -2 -19 -8z"/>
<path d="M4790 1300 c0 -5 7 -7 15 -4 8 4 15 8 15 10 0 2 -7 4 -15 4 -8 0 -15
-4 -15 -10z"/>
<path d="M4790 1276 c0 -2 8 -10 18 -17 15 -13 16 -12 3 4 -13 16 -21 21 -21
13z"/>
<path d="M4835 1271 c-3 -5 -2 -12 3 -15 5 -3 9 1 9 9 0 17 -3 19 -12 6z"/>
<path d="M4736 1245 c-3 -8 -1 -15 4 -15 6 0 10 7 10 15 0 8 -2 15 -4 15 -2 0
-6 -7 -10 -15z"/>
<path d="M4810 1223 c0 -6 8 -17 18 -24 16 -13 16 -13 2 6 -8 11 -16 22 -17
24 -2 2 -3 0 -3 -6z"/>
<path d="M4753 1205 c0 -8 4 -15 9 -15 4 0 8 4 8 9 0 6 -4 12 -8 15 -5 3 -9
-1 -9 -9z"/>
<path d="M4655 1180 c3 -5 8 -10 11 -10 2 0 4 5 4 10 0 6 -5 10 -11 10 -5 0
-7 -4 -4 -10z"/>
<path d="M4719 1173 c-13 -16 -12 -17 4 -4 16 13 21 21 13 21 -2 0 -10 -8 -17
-17z"/>
<path d="M4636 1113 c-6 -14 -5 -15 5 -6 7 7 10 15 7 18 -3 3 -9 -2 -12 -12z"/>
<path d="M4536 1097 c5 -14 2 -16 -12 -11 -16 5 -16 4 -4 -5 20 -14 39 4 21
22 -10 10 -11 9 -5 -6z"/>
<path d="M4416 1075 c4 -8 8 -15 10 -15 2 0 4 7 4 15 0 8 -4 15 -10 15 -5 0
-7 -7 -4 -15z"/>
<path d="M4313 1057 c-26 -11 -30 -24 -8 -24 8 0 12 4 10 8 -3 4 2 10 11 13
11 4 15 2 11 -8 -6 -14 17 -17 28 -3 3 4 2 5 -2 2 -3 -3 -11 2 -17 9 -8 11
-16 11 -33 3z"/>
<path d="M4109 1058 c-5 -16 -4 -46 2 -42 4 2 7 13 6 24 -1 17 -5 26 -8 18z"/>
<path d="M4140 1050 c8 -5 20 -10 25 -10 6 0 3 5 -5 10 -8 5 -19 10 -25 10 -5
0 -3 -5 5 -10z"/>
<path d="M4045 1040 c-3 -6 1 -7 9 -4 18 7 21 14 7 14 -6 0 -13 -4 -16 -10z"/>
<path d="M4250 1042 c0 -5 7 -9 15 -9 8 0 12 4 9 9 -3 4 -9 8 -15 8 -5 0 -9
-4 -9 -8z"/>
<path d="M4429 1037 c6 -8 7 -18 3 -22 -4 -5 -1 -5 6 -1 10 6 10 11 1 22 -6 8
-14 14 -16 14 -3 0 0 -6 6 -13z"/>
<path d="M4395 1031 c-3 -5 -2 -12 3 -15 5 -3 9 1 9 9 0 17 -3 19 -12 6z"/>
<path d="M4020 1026 c0 -2 8 -10 18 -17 15 -13 16 -12 3 4 -13 16 -21 21 -21
13z"/>
<path d="M4066 1018 c3 -5 10 -6 15 -3 13 9 11 12 -6 12 -8 0 -12 -4 -9 -9z"/>
<path d="M4187 1019 c7 -7 15 -10 18 -7 3 3 -2 9 -12 12 -14 6 -15 5 -6 -5z"/>
<path d="M4216 973 c-6 -14 -5 -15 5 -6 7 7 10 15 7 18 -3 3 -9 -2 -12 -12z"/>
</g>
</svg>
